<?xml version="1.0" encoding="UTF-8"?>
<svg id="Layer_1" xmlns="http://www.w3.org/2000/svg" version="1.1" viewBox="0 0 800 800">
  <!-- Generator: Adobe Illustrator 29.7.1, SVG Export Plug-In . SVG Version: 2.1.1 Build 8)  -->
  <defs>
    <style>
      .st0 {
        fill: #8f7fff;
      }
    </style>
  </defs>
  <path class="st0" d="M751.8,202.83h-14.05v-14.05c0-26.58-21.62-48.2-48.2-48.2H48.2c-26.58,0-48.2,21.62-48.2,48.2v360.18c0,26.57,21.62,48.2,48.2,48.2h14.05v14.05c0,26.58,21.62,48.2,48.2,48.2h641.36c26.57,0,48.2-21.62,48.2-48.2V251.03c0-26.57-21.62-48.2-48.2-48.2ZM62.24,251.03v314.27h-14.04c-9,0-16.32-7.32-16.32-16.32V188.79c0-9,7.32-16.32,16.32-16.32h641.36c9,0,16.32,7.32,16.32,16.32v14.05H110.44c-26.57,0-48.2,21.62-48.2,48.2ZM768.13,611.21c0,9-7.32,16.32-16.32,16.32H110.44c-9,0-16.32-7.32-16.32-16.32V251.03c0-9,7.32-16.32,16.32-16.32h641.36c9,0,16.32,7.32,16.32,16.32v360.18h0Z"/>
  <path class="st0" d="M702.54,324.18h-192.44c-8.8,0-15.94,7.14-15.94,15.94s7.13,15.94,15.94,15.94h192.44c8.8,0,15.94-7.14,15.94-15.94s-7.14-15.94-15.94-15.94Z"/>
  <path class="st0" d="M702.54,418.22h-192.44c-8.8,0-15.94,7.14-15.94,15.94s7.13,15.94,15.94,15.94h192.44c8.8,0,15.94-7.14,15.94-15.94s-7.14-15.94-15.94-15.94Z"/>
  <path class="st0" d="M703.33,512.25h-11.53c-8.8,0-15.94,7.14-15.94,15.94s7.14,15.94,15.94,15.94h11.53c8.8,0,15.94-7.14,15.94-15.94s-7.14-15.94-15.94-15.94Z"/>
  <path class="st0" d="M636.15,512.25h-126.05c-8.8,0-15.94,7.14-15.94,15.94s7.14,15.94,15.94,15.94h126.05c8.8,0,15.94-7.14,15.94-15.94s-7.14-15.94-15.94-15.94Z"/>
  <path class="st0" d="M294.69,444.26c-71.24,0-129.2,54.73-129.2,122,0,8.8,7.13,15.94,15.94,15.94h226.53c8.8,0,15.94-7.14,15.94-15.94,0-67.27-57.96-122-129.2-122ZM277.67,550.33h-78.78c7.16-37,38.79-66.24,78.78-72.8v72.8ZM309.54,550.33v-73.12c41.01,5.84,73.68,35.45,80.96,73.12h-80.96Z"/>
  <path class="st0" d="M293.46,277.73c-42.7,0-77.45,34.74-77.45,77.45s34.74,77.45,77.45,77.45,77.45-34.74,77.45-77.45-34.74-77.45-77.45-77.45ZM293.46,400.74c-25.13,0-45.57-20.44-45.57-45.57s20.45-45.57,45.57-45.57,45.57,20.44,45.57,45.57-20.45,45.57-45.57,45.57Z"/>
</svg>