<?xml version="1.0" encoding="UTF-8"?>
<svg id="Layer_1" xmlns="http://www.w3.org/2000/svg" version="1.1" viewBox="0 0 800 800">
  <!-- Generator: Adobe Illustrator 29.7.1, SVG Export Plug-In . SVG Version: 2.1.1 Build 8)  -->
  <defs>
    <style>
      .st0 {
        fill: #8f7fff;
      }
    </style>
  </defs>
  <path class="st0" d="M594.27,113.26v579.37c-.07,26.02-21.14,47.09-47.16,47.16h-290.19c-26.02-.07-47.09-21.14-47.16-47.16V113.26c.07-26.02,21.14-47.09,47.16-47.16h290.19c26.02.07,47.09,21.14,47.16,47.16ZM547.12,190.91h-290.19v431.41h290.19V190.91ZM323.54,131.2c0,13.02,10.56,23.58,23.58,23.58h109.89c13.02,0,23.58-10.56,23.58-23.58s-10.56-23.58-23.58-23.58h-109.89c-13.02,0-23.58,10.56-23.58,23.58h0ZM425.56,681.05c0-12.98-10.52-23.49-23.49-23.49-12.98,0-23.49,10.52-23.49,23.49,0,12.96,10.49,23.47,23.45,23.49,12.98.02,23.51-10.48,23.54-23.45,0-.01,0-.03,0-.04Z"/>
</svg>