<?xml version="1.0" encoding="UTF-8"?>
<svg id="Layer_1" xmlns="http://www.w3.org/2000/svg" version="1.1" viewBox="0 0 800 800">
  <!-- Generator: Adobe Illustrator 29.7.1, SVG Export Plug-In . SVG Version: 2.1.1 Build 8)  -->
  <defs>
    <style>
      .st0, .st1 {
        fill: #8f7fff;
      }

      .st1 {
        fill-rule: evenodd;
      }
    </style>
  </defs>
  <path class="st0" d="M266.67,283.33c0-18.41-14.92-33.33-33.33-33.33s-33.33,14.92-33.33,33.33v16.67h-16.67c-18.41,0-33.33,14.92-33.33,33.33s14.92,33.33,33.33,33.33h16.67v16.67c0,18.41,14.92,33.33,33.33,33.33s33.33-14.92,33.33-33.33v-16.67h16.67c18.41,0,33.33-14.92,33.33-33.33s-14.92-33.33-33.33-33.33h-16.67v-16.67Z"/>
  <path class="st0" d="M600,266.67c0,18.41-14.92,33.33-33.33,33.33s-33.33-14.92-33.33-33.33,14.92-33.33,33.33-33.33,33.33,14.92,33.33,33.33Z"/>
  <path class="st0" d="M566.67,433.33c18.41,0,33.33-14.92,33.33-33.33s-14.92-33.33-33.33-33.33-33.33,14.92-33.33,33.33,14.92,33.33,33.33,33.33Z"/>
  <path class="st0" d="M533.33,333.33c0,18.41-14.92,33.33-33.33,33.33s-33.33-14.92-33.33-33.33,14.92-33.33,33.33-33.33,33.33,14.92,33.33,33.33Z"/>
  <path class="st0" d="M633.33,366.67c18.41,0,33.33-14.92,33.33-33.33s-14.92-33.33-33.33-33.33-33.33,14.92-33.33,33.33,14.92,33.33,33.33,33.33Z"/>
  <path class="st1" d="M400,100c-60.4,0-134.59,8.61-192.74,16.98-75.83,10.92-137.56,66.92-153.6,142.63-8.97,42.37-17.77,92.46-19.78,134.4-1.44,30.07-4.62,72.09-7.98,112.4-3.5,41.94,10.48,85.14,36.12,115.86,26.17,31.35,67.61,52.49,115.43,39.11,30.62-8.57,55.08-30.09,73.23-51.29,18.55-21.67,33.31-46.34,43.83-66.41,8.1-15.45,22.47-24.16,36-24.16h138.97c13.53,0,27.91,8.71,36,24.16,10.52,20.07,25.28,44.74,43.83,66.41,18.15,21.2,42.61,42.72,73.23,51.29,47.82,13.38,89.26-7.75,115.43-39.11,25.64-30.72,39.62-73.92,36.12-115.86-3.36-40.31-6.53-82.33-7.98-112.4-2.02-41.94-10.81-92.04-19.78-134.4-16.03-75.71-77.77-131.72-153.6-142.63-58.15-8.37-132.33-16.98-192.74-16.98ZM216.76,182.96c57.49-8.28,127.8-16.3,183.24-16.3s125.75,8.02,183.24,16.3c48.93,7.04,87.8,42.87,97.87,90.46,8.78,41.43,16.66,87.32,18.41,123.79,1.5,31.32,4.76,74.33,8.13,114.74,2.05,24.57-6.52,50.41-20.87,67.6-13.83,16.57-29.83,22.23-46.28,17.62-12.19-3.41-26.09-13.54-40.55-30.44-14.06-16.42-26.15-36.3-35.42-54-17.73-33.85-52.93-59.89-95.05-59.89h-138.97c-42.12,0-77.32,26.04-95.06,59.89-9.27,17.7-21.36,37.57-35.42,54-14.46,16.9-28.36,27.03-40.55,30.44-16.45,4.6-32.45-1.06-46.28-17.62-14.35-17.19-22.92-43.03-20.87-67.6,3.37-40.41,6.63-83.42,8.13-114.74,1.75-36.47,9.64-82.36,18.41-123.79,10.08-47.59,48.95-83.42,97.88-90.46Z"/>
</svg>