<?xml version="1.0" encoding="UTF-8"?>
<svg id="Layer_1" xmlns="http://www.w3.org/2000/svg" version="1.1" viewBox="0 0 800 800">
  <!-- Generator: Adobe Illustrator 29.7.1, SVG Export Plug-In . SVG Version: 2.1.1 Build 8)  -->
  <defs>
    <style>
      .st0 {
        fill: none;
        stroke: #8f7fff;
        stroke-linecap: round;
        stroke-miterlimit: 133.33;
        stroke-width: 50px;
      }

      .st1 {
        fill: #8f7fff;
        stroke: #cac8f3;
        stroke-miterlimit: 10;
      }
    </style>
  </defs>
  <path class="st0" d="M654.9,517.86H145.1M654.9,517.86v-251.19c0-62.85,0-94.28-19.53-113.81-19.53-19.53-50.95-19.53-113.81-19.53h-243.14c-62.85,0-94.28,0-113.81,19.53-19.53,19.53-19.53,50.95-19.53,113.81v251.19M654.9,517.86l58.13,60c1.48,1.53,2.23,2.3,2.92,3.06,10.7,11.75,16.85,26.94,17.34,42.83.03,1.03.03,2.1.03,4.23,0,4.97,0,7.46-.13,9.56-2.12,33.51-28.82,60.21-62.33,62.33-2.1.13-4.59.13-9.56.13H138.69c-4.97,0-7.46,0-9.56-.13-33.51-2.12-60.21-28.82-62.33-62.33-.13-2.1-.13-4.59-.13-9.56,0-2.13,0-3.2.03-4.23.49-15.89,6.64-31.07,17.34-42.83.69-.76,1.44-1.53,2.92-3.06l58.14-60"/>
  <path class="st0" d="M316.67,616.67h166.67"/>
  <path class="st1" d="M425,225c0,13.81-11.19,25-25,25s-25-11.19-25-25,11.19-25,25-25,25,11.19,25,25Z"/>
</svg>