<?xml version="1.0" encoding="UTF-8"?>
<svg id="Layer_1" xmlns="http://www.w3.org/2000/svg" version="1.1" viewBox="0 0 800 800">
  <!-- Generator: Adobe Illustrator 29.7.1, SVG Export Plug-In . SVG Version: 2.1.1 Build 8)  -->
  <defs>
    <style>
      .st0 {
        fill: #8f7fff;
      }
    </style>
  </defs>
  <path class="st0" d="M793.63,537.36H6.37c-3.45,0-6.25-2.79-6.25-6.24,0,0,0,0,0,0,0-3.45,2.79-6.25,6.24-6.25h787.27c3.45,0,6.25,2.79,6.25,6.24h0c0,3.46-2.79,6.25-6.24,6.25h0ZM400,599.82c-13.78,0-24.99-11.2-24.99-24.99s11.21-24.99,24.99-24.99,24.99,11.2,24.99,24.99-11.22,24.99-24.99,24.99ZM400,562.33c-6.9,0-12.5,5.61-12.5,12.5s5.6,12.5,12.5,12.5,12.5-5.61,12.5-12.5-5.6-12.5-12.5-12.5h0ZM293.86,762.29c-3.46,0-6.25-2.81-6.25-6.27,0-.45.05-.9.15-1.33l24.99-112.47c.75-3.36,4.06-5.46,7.46-4.75,3.37.75,5.49,4.09,4.75,7.46l-24.99,112.47c-.64,2.86-3.17,4.89-6.1,4.89ZM506.14,762.29c-2.93,0-5.46-2.03-6.1-4.89l-24.99-112.47c-.74-3.37,1.38-6.7,4.75-7.46,3.42-.71,6.71,1.39,7.45,4.75l24.99,112.47c.74,3.37-1.39,6.71-4.76,7.46-.44.1-.89.15-1.34.15Z"/>
  <path class="st0" d="M524.96,762.29h-249.92c-3.45,0-6.25-2.79-6.25-6.24h0c0-3.46,2.79-6.25,6.24-6.26h249.93c3.45,0,6.25,2.79,6.25,6.24h0c0,3.45-2.79,6.25-6.24,6.25h0ZM756.14,500.07H43.86c-3.45,0-6.25-2.79-6.25-6.24h0V81.45c0-3.45,2.79-6.25,6.24-6.25h712.29c3.45,0,6.25,2.8,6.25,6.25v412.37c0,3.45-2.79,6.25-6.24,6.25h0ZM50.11,487.57h699.79V87.69H50.11v399.88Z"/>
  <path class="st0" d="M756.14,625.03H43.86c-24.11,0-43.74-19.62-43.74-43.74V81.45C.12,57.33,19.75,37.71,43.86,37.71h712.28c24.12,0,43.74,19.62,43.74,43.74v499.85c0,24.11-19.62,43.74-43.74,43.74ZM43.86,50.2c-17.23,0-31.24,14.02-31.24,31.24v499.85c0,17.23,14.01,31.24,31.24,31.24h712.28c17.23,0,31.24-14.01,31.24-31.24V81.45c0-17.23-14.01-31.24-31.24-31.24H43.86Z"/>
  <path class="st0" d="M756.14,649.83H43.86c-24.53,0-43.74-19.21-43.74-43.74v-24.99c0-3.45,2.79-6.25,6.24-6.25h0c3.45,0,6.25,2.79,6.25,6.24,0,0,0,0,0,0v24.99c0,17.52,13.72,31.24,31.24,31.24h712.28c17.53,0,31.24-13.72,31.24-31.24v-24.8c0-3.45,2.79-6.25,6.24-6.25h0c3.45,0,6.25,2.79,6.25,6.24h0v24.8c0,24.53-19.21,43.74-43.74,43.74h0ZM68.85,500.07c-3.45,0-6.25-2.79-6.25-6.24h0V81.45c0-3.45,2.79-6.25,6.24-6.25h0c3.45,0,6.25,2.79,6.25,6.24h0v412.38c0,3.45-2.79,6.25-6.24,6.25h0Z"/>
  <path class="st0" d="M56.36,125.18h-12.5c-3.45,0-6.25-2.79-6.25-6.25s2.8-6.25,6.25-6.25h12.5c3.45,0,6.25,2.79,6.25,6.25s-2.8,6.25-6.25,6.25ZM56.36,162.67h-12.5c-3.45,0-6.25-2.8-6.25-6.25s2.8-6.25,6.25-6.25h12.5c3.45,0,6.25,2.8,6.25,6.25s-2.8,6.25-6.25,6.25ZM56.36,200.16h-12.5c-3.45,0-6.25-2.79-6.25-6.25s2.8-6.25,6.25-6.25h12.5c3.45,0,6.25,2.79,6.25,6.25s-2.8,6.25-6.25,6.25ZM56.36,237.65h-12.5c-3.45,0-6.25-2.8-6.25-6.25s2.8-6.25,6.25-6.25h12.5c3.45,0,6.25,2.8,6.25,6.25s-2.8,6.25-6.25,6.25ZM56.36,275.14h-12.5c-3.45,0-6.25-2.79-6.25-6.25s2.8-6.25,6.25-6.25h12.5c3.45,0,6.25,2.79,6.25,6.25s-2.8,6.25-6.25,6.25ZM56.36,312.63h-12.5c-3.45,0-6.25-2.79-6.25-6.24h0c0-3.46,2.79-6.25,6.24-6.25h12.5c3.45,0,6.25,2.79,6.25,6.24h0c0,3.46-2.8,6.25-6.25,6.25h0ZM56.36,350.11h-12.5c-3.45,0-6.25-2.79-6.25-6.24h0c0-3.46,2.79-6.25,6.24-6.25h12.5c3.45,0,6.25,2.79,6.25,6.24h0c0,3.46-2.79,6.25-6.24,6.25h0ZM56.36,387.6h-12.5c-3.45,0-6.25-2.79-6.25-6.24h0c0-3.46,2.79-6.25,6.24-6.25h12.5c3.45,0,6.25,2.79,6.25,6.24h0c0,3.46-2.8,6.25-6.25,6.25h0ZM56.36,425.09h-12.5c-3.45,0-6.25-2.79-6.25-6.24h0c0-3.45,2.79-6.25,6.24-6.25h12.5c3.45,0,6.25,2.79,6.25,6.24h0c0,3.46-2.79,6.25-6.24,6.26h0ZM56.36,462.58h-12.5c-3.45,0-6.25-2.8-6.25-6.25s2.8-6.25,6.25-6.25h12.5c3.45,0,6.25,2.8,6.25,6.25s-2.8,6.25-6.25,6.25ZM156.32,125.18h-49.98c-3.45,0-6.25-2.79-6.25-6.25s2.79-6.25,6.25-6.25h49.98c3.45,0,6.25,2.79,6.25,6.25s-2.8,6.25-6.25,6.25ZM356.26,162.67h-149.95c-3.45,0-6.25-2.8-6.25-6.25s2.79-6.25,6.25-6.25h149.95c3.45,0,6.25,2.8,6.25,6.25s-2.79,6.25-6.25,6.25ZM181.32,162.67h-62.48c-3.45,0-6.25-2.8-6.25-6.25s2.8-6.25,6.25-6.25h62.48c3.45,0,6.25,2.8,6.25,6.25s-2.8,6.25-6.25,6.25ZM356.26,200.16h-12.5c-3.45,0-6.25-2.79-6.25-6.25s2.8-6.25,6.25-6.25h12.5c3.45,0,6.25,2.79,6.25,6.25s-2.79,6.25-6.25,6.25ZM318.78,200.16h-187.44c-3.45,0-6.25-2.79-6.25-6.25s2.79-6.25,6.25-6.25h187.44c3.45,0,6.25,2.79,6.25,6.25s-2.8,6.25-6.25,6.25h0ZM168.82,275.14h-37.49c-3.45,0-6.25-2.79-6.25-6.25s2.79-6.25,6.25-6.25h37.49c3.45,0,6.25,2.79,6.25,6.25s-2.8,6.25-6.25,6.25h0ZM356.26,275.14h-162.45c-3.45,0-6.25-2.79-6.25-6.25s2.8-6.25,6.25-6.25h162.45c3.45,0,6.25,2.79,6.25,6.25s-2.8,6.25-6.25,6.25ZM356.26,237.65h-212.43c-3.45,0-6.25-2.8-6.25-6.25s2.8-6.25,6.25-6.25h212.43c3.45,0,6.25,2.8,6.25,6.25s-2.79,6.25-6.25,6.25ZM356.26,312.63h-49.98c-3.45,0-6.25-2.79-6.25-6.24h0c0-3.46,2.79-6.25,6.24-6.25h49.99c3.45,0,6.25,2.79,6.25,6.24h0c0,3.46-2.79,6.25-6.24,6.25h0ZM318.78,350.11H118.84c-3.45,0-6.25-2.79-6.25-6.24h0c0-3.46,2.79-6.25,6.24-6.25h199.95c3.45,0,6.25,2.79,6.25,6.24h0c0,3.46-2.79,6.25-6.24,6.25h0,0ZM218.81,425.09h-99.97c-3.45,0-6.25-2.79-6.25-6.24h0c0-3.45,2.79-6.25,6.24-6.25h99.98c3.45,0,6.25,2.79,6.25,6.24h0c0,3.46-2.79,6.25-6.24,6.26h0ZM356.26,387.6h-62.48c-3.45,0-6.25-2.79-6.25-6.24h0c0-3.46,2.79-6.25,6.24-6.25h62.49c3.45,0,6.25,2.79,6.25,6.24h0c0,3.46-2.79,6.25-6.24,6.25h0ZM268.79,387.6h-137.46c-3.45,0-6.25-2.79-6.25-6.24h0c0-3.46,2.79-6.25,6.24-6.25h137.46c3.45,0,6.25,2.79,6.25,6.24h0c0,3.46-2.79,6.25-6.24,6.25h0ZM156.32,462.58h-49.98c-3.45,0-6.25-2.8-6.25-6.25s2.79-6.25,6.25-6.25h49.98c3.45,0,6.25,2.8,6.25,6.25s-2.8,6.25-6.25,6.25ZM356.26,350.11h-12.5c-3.45,0-6.25-2.79-6.25-6.24h0c0-3.46,2.79-6.25,6.24-6.25h12.5c3.45,0,6.25,2.79,6.25,6.24h0c0,3.45-2.79,6.25-6.24,6.25h0ZM281.29,312.63h-149.95c-3.45,0-6.25-2.79-6.25-6.24h0c0-3.46,2.79-6.25,6.24-6.25h149.96c3.45,0,6.25,2.79,6.25,6.24h0c0,3.46-2.8,6.25-6.25,6.25h0,0Z"/>
  <path class="st0" d="M400,500.07c-3.45,0-6.25-2.79-6.25-6.24h0V81.45c0-3.45,2.79-6.25,6.24-6.25h0c3.45,0,6.25,2.79,6.25,6.24h0v412.38c0,3.45-2.79,6.25-6.24,6.25h0,0Z"/>
  <path class="st0" d="M706.15,425.09c-2.11,0-4.08-1.07-5.23-2.84l-75.99-116.9-75.99,116.9c-1.87,2.92-5.76,3.71-8.64,1.84-2.89-1.89-3.71-5.76-1.83-8.65l81.23-124.96c2.3-3.55,8.17-3.55,10.47,0l81.23,124.96c1.88,2.9,1.06,6.77-1.83,8.65-1.05.68-2.23,1-3.4,1Z"/>
  <path class="st0" d="M493.72,425.09c-3.45,0-6.25-2.8-6.25-6.25,0-1.23.36-2.44,1.05-3.47l49.98-74.9c1.92-2.87,5.8-3.64,8.67-1.73.68.46,1.27,1.04,1.73,1.73l24.63,36.91c1.91,2.87,1.14,6.75-1.73,8.66-2.87,1.89-6.75,1.15-8.66-1.73l-19.43-29.12-44.79,67.11c-1.16,1.74-3.11,2.78-5.2,2.78h0ZM493.72,337.62c-17.23,0-31.24-14.02-31.24-31.24s14.01-31.24,31.24-31.24,31.24,14.02,31.24,31.24c0,17.23-14.01,31.24-31.24,31.24ZM493.72,287.63c-10.34,0-18.74,8.41-18.74,18.74s8.41,18.74,18.74,18.74,18.74-8.41,18.74-18.74-8.41-18.74-18.74-18.74Z"/>
  <path class="st0" d="M718.65,425.09h-274.92c-3.45,0-6.25-2.79-6.25-6.25v-162.45c0-3.45,2.79-6.25,6.24-6.25h274.92c3.45,0,6.25,2.79,6.25,6.24h0v162.46c0,3.45-2.79,6.24-6.23,6.25h-.01ZM449.98,412.6h262.42v-149.95h-262.42v149.95Z"/>
  <path class="st0" d="M718.65,125.18h-274.92c-3.45,0-6.25-2.79-6.25-6.25s2.8-6.25,6.25-6.25h274.91c3.45,0,6.25,2.79,6.25,6.25s-2.79,6.25-6.25,6.25Z"/>
  <path class="st0" d="M718.65,225.15c-3.45,0-6.24-2.79-6.25-6.24h0v-99.98c0-3.45,2.79-6.25,6.25-6.25s6.25,2.79,6.25,6.25v99.97c0,3.45-2.79,6.25-6.24,6.25h0Z"/>
  <path class="st0" d="M718.65,225.15h-274.92c-3.45,0-6.25-2.79-6.25-6.25s2.8-6.25,6.25-6.25h274.91c3.45,0,6.25,2.79,6.25,6.25s-2.79,6.25-6.25,6.25Z"/>
  <path class="st0" d="M681.16,175.17h-237.43c-3.45,0-6.25-2.79-6.25-6.25s2.8-6.25,6.25-6.25h237.43c3.45,0,6.25,2.79,6.25,6.25s-2.8,6.25-6.25,6.25Z"/>
  <path class="st0" d="M718.65,462.58h-274.92c-3.45,0-6.25-2.8-6.25-6.25s2.8-6.25,6.25-6.25h274.91c3.45,0,6.25,2.8,6.25,6.25s-2.79,6.25-6.25,6.25Z"/>
</svg>